<?xml version="1.0" standalone="no"?>
<!DOCTYPE svg PUBLIC "-//W3C//DTD SVG 20010904//EN"
 "http://www.w3.org/TR/2001/REC-SVG-20010904/DTD/svg10.dtd">
<svg version="1.0" xmlns="http://www.w3.org/2000/svg"
 width="787.000000pt" height="787.000000pt" viewBox="0 0 787.000000 787.000000"
 preserveAspectRatio="xMidYMid meet">
<metadata>
Created by potrace 1.14, written by Peter Selinger 2001-2017
</metadata>
<g transform="translate(0.000000,787.000000) scale(0.100000,-0.100000)"
fill="#000000" stroke="none">
<path d="M1783 5699 c-3 -11 -10 -19 -16 -19 -6 0 -8 -3 -5 -6 4 -3 2 -19 -3
-36 -5 -17 -11 -71 -14 -120 l-6 -89 33 -13 c20 -9 37 -11 44 -5 6 5 14 6 17
2 4 -3 37 -7 74 -9 83 -3 134 -24 164 -65 19 -27 22 -43 20 -122 -1 -84 -5
-142 -11 -142 -1 0 -4 -22 -7 -50 -2 -27 -8 -52 -11 -55 -4 -3 -8 -14 -9 -25
-1 -11 -4 -31 -7 -45 -3 -14 -8 -38 -11 -55 -38 -190 -72 -345 -75 -341 -3 2
-5 -8 -6 -22 0 -15 -3 -38 -6 -52 -3 -14 -10 -43 -14 -65 -10 -52 -11 -55 -14
-57 -2 -3 -3 -11 -20 -93 -19 -102 -21 -109 -31 -150 -5 -22 -12 -55 -15 -74
-2 -18 -14 -74 -25 -125 -12 -50 -22 -95 -23 -101 -1 -5 -4 -14 -7 -20 -4 -5
-5 -20 -4 -32 1 -13 -2 -23 -6 -23 -4 0 -6 -13 -5 -30 1 -16 -1 -31 -5 -32 -5
-2 -44 -185 -75 -355 -2 -12 -8 -33 -14 -47 -5 -13 -6 -27 -3 -30 3 -3 2 -11
-4 -18 -5 -7 -10 -29 -12 -48 -2 -19 -6 -37 -10 -40 -4 -3 -6 -12 -6 -20 1 -8
-3 -28 -8 -45 -4 -16 -10 -44 -12 -60 -3 -17 -16 -82 -31 -145 -14 -63 -28
-125 -31 -137 -3 -13 -10 -23 -15 -23 -5 0 -6 -5 -3 -10 8 -13 -30 -90 -53
-107 -9 -7 -12 -13 -8 -13 4 0 -5 -11 -21 -24 -37 -31 -99 -47 -193 -51 -103
-5 -156 -14 -169 -28 -6 -8 -8 -54 -6 -117 5 -124 7 -133 23 -153 13 -16 20
-16 247 0 91 6 688 8 887 3 68 -2 105 -7 101 -13 -4 -6 -1 -7 8 -1 18 11 67
13 96 2 13 -4 25 -3 28 3 4 5 11 7 16 3 10 -6 196 -14 376 -17 51 -1 93 -5 93
-9 0 -4 11 -3 25 2 14 5 25 6 25 2 0 -4 35 -8 78 -8 42 -1 114 -3 160 -4 54
-2 87 2 97 10 8 7 15 9 15 4 0 -21 34 57 56 131 14 44 29 88 34 97 6 10 10 23
10 30 0 7 7 26 15 41 9 18 10 25 2 20 -9 -5 -9 -3 0 8 10 12 61 160 67 192 2
13 24 83 33 107 3 8 8 24 10 35 2 11 6 27 10 35 8 19 8 19 18 55 4 17 12 36
18 43 5 6 7 12 3 12 -3 0 -1 12 5 28 6 15 18 52 25 82 8 30 16 60 18 65 12 40
25 100 33 161 5 35 2 42 -21 57 -14 10 -26 15 -26 11 0 -4 -6 -2 -12 4 -17 13
-146 35 -178 31 -19 -3 -33 -19 -58 -64 -17 -33 -35 -68 -38 -77 -4 -10 -11
-18 -17 -18 -6 0 -7 -3 -4 -7 4 -3 1 -13 -5 -21 -7 -8 -13 -19 -14 -26 -1 -6
-16 -32 -33 -58 -17 -25 -31 -51 -31 -58 0 -13 -38 -71 -55 -82 -6 -5 -6 -8 0
-8 7 0 7 -3 0 -8 -6 -4 -19 -24 -30 -44 -11 -21 -23 -38 -27 -38 -5 0 -8 -6
-8 -12 0 -7 -18 -36 -39 -65 -22 -28 -37 -54 -34 -57 4 -3 0 -6 -8 -6 -8 0
-22 -12 -32 -27 -20 -34 -72 -93 -81 -93 -4 0 -21 -14 -39 -31 -27 -25 -78
-60 -97 -64 -7 -2 -39 -14 -68 -26 -24 -10 -374 -5 -452 6 -68 10 -110 33
-125 68 -7 18 -10 34 -6 37 5 3 7 12 6 22 -2 9 3 45 11 81 7 35 15 76 18 90 2
15 12 62 20 104 18 88 24 115 32 158 8 43 12 60 14 63 2 1 4 11 5 22 1 11 4
21 5 23 1 1 3 13 4 27 2 14 6 34 9 45 3 11 9 34 12 50 9 54 14 75 18 83 3 4 8
25 11 47 4 22 13 74 22 115 9 41 17 84 20 95 11 54 25 123 30 145 8 37 15 72
17 95 1 11 5 22 8 25 4 3 8 21 10 40 2 19 7 41 12 48 6 7 7 15 4 18 -3 3 -2
16 3 28 4 13 11 38 14 57 5 30 27 143 40 207 3 13 7 31 10 40 3 9 7 33 10 52
3 19 12 60 19 90 7 30 12 62 12 70 0 8 2 17 6 20 4 3 10 21 13 40 3 19 8 46
11 60 9 46 55 275 60 295 5 24 15 73 20 100 6 28 13 59 15 65 1 3 2 8 1 12 -2
17 54 145 77 178 23 31 48 53 62 55 3 0 16 7 28 14 30 16 61 22 137 26 33 2
60 4 60 5 0 0 22 2 48 4 71 5 82 20 79 114 -3 91 -11 150 -24 175 -9 17 -19
18 -91 13 -196 -14 -359 -19 -612 -19 -231 0 -530 8 -530 14 0 1 -38 3 -84 4
-75 2 -84 1 -88 -16z"/>
<path d="M4700 5670 c0 -3 -10 -6 -22 -5 -54 4 -195 -93 -213 -148 -4 -9 -10
-15 -14 -13 -4 3 -8 -5 -8 -16 -1 -12 -7 -24 -12 -28 -18 -11 -41 -103 -41
-166 0 -58 16 -114 33 -114 5 0 6 -4 3 -9 -10 -15 98 -105 146 -122 24 -8 63
-15 86 -15 23 1 42 -3 42 -9 0 -6 3 -5 8 1 4 6 19 14 35 18 39 9 129 69 152
102 11 16 28 36 38 46 9 10 14 18 10 18 -5 0 -3 4 3 8 5 4 17 23 26 42 32 72
40 113 36 181 -6 81 -35 133 -101 179 -23 16 -47 33 -52 37 -16 12 -33 15 -97
18 -32 1 -58 -1 -58 -5z"/>
<path d="M6328 5244 c-2 -1 -19 -5 -38 -8 -19 -3 -66 -15 -105 -27 -38 -13
-73 -22 -77 -21 -5 1 -8 -2 -8 -7 0 -8 -37 -24 -52 -22 -5 1 -8 -3 -8 -9 0 -6
-6 -10 -14 -10 -8 0 -17 -7 -20 -16 -4 -9 -9 -14 -13 -11 -16 17 -34 -26 -64
-153 -18 -76 -36 -137 -39 -135 -3 2 -6 -9 -6 -23 -2 -33 -13 -92 -20 -104 -3
-4 -7 -18 -10 -30 -3 -13 -6 -27 -8 -33 -1 -5 -11 -46 -21 -89 -29 -128 -24
-126 -264 -126 -197 0 -200 0 -213 -22 -7 -13 -13 -26 -14 -30 -1 -5 -2 -9 -4
-10 -2 -4 -10 -38 -15 -68 -13 -81 -15 -98 -17 -130 -2 -55 10 -80 38 -81 97
-2 144 0 153 5 6 4 11 4 11 -1 0 -4 38 -7 84 -6 125 4 129 -7 85 -212 -12 -55
-25 -104 -29 -109 -5 -5 -6 -15 -3 -22 3 -8 1 -14 -4 -14 -5 0 -10 -11 -11
-25 -3 -45 -5 -55 -12 -55 -3 0 -7 -10 -7 -22 -1 -13 -20 -97 -43 -188 -23
-91 -43 -173 -45 -183 -2 -10 -7 -27 -10 -37 -8 -25 -16 -63 -17 -77 -1 -7 -4
-13 -8 -13 -3 0 -6 -8 -7 -17 -1 -10 -18 -83 -37 -163 -19 -80 -37 -167 -41
-194 -3 -27 -9 -54 -12 -60 -11 -16 -13 -305 -2 -311 5 -4 9 -15 9 -25 0 -31
46 -126 69 -142 11 -8 19 -17 16 -20 -3 -3 8 -11 25 -18 16 -7 30 -16 30 -20
0 -5 20 -15 44 -23 44 -15 173 -16 196 -2 6 3 22 9 37 11 15 3 33 10 40 16 7
6 13 7 13 3 0 -4 7 -2 15 5 8 7 15 10 15 7 0 -9 141 62 176 89 17 13 34 21 38
19 3 -3 4 -2 2 1 -3 4 18 24 45 46 64 50 229 219 229 234 0 3 18 24 40 46 22
23 40 47 40 55 0 8 5 11 10 8 6 -3 10 1 10 9 0 9 4 16 9 16 5 0 15 16 22 35 7
19 16 35 20 35 10 0 4 41 -9 66 -6 12 -32 39 -57 61 -66 57 -82 52 -170 -51
-167 -197 -197 -224 -250 -227 -50 -4 -73 9 -86 48 -14 44 -8 156 16 268 10
44 19 87 20 95 2 8 4 15 5 15 3 0 12 41 13 60 0 11 3 22 7 25 5 4 71 271 86
349 3 14 7 28 10 33 5 8 10 34 16 83 2 11 6 22 10 25 3 3 8 19 11 35 3 17 15
68 27 115 11 47 28 114 36 150 27 112 34 128 67 149 29 18 51 19 274 19 206 0
245 2 258 16 15 15 43 83 50 121 20 112 21 171 3 192 -8 10 -64 13 -248 13
-295 0 -282 -7 -250 145 7 33 14 67 15 75 2 8 4 15 5 15 1 0 4 11 14 60 1 6 5
16 9 23 5 6 5 17 1 23 -3 6 -2 14 3 18 12 8 83 323 87 389 3 50 1 54 -26 68
-24 12 -139 19 -150 8z"/>
<path d="M4415 4455 c-82 -17 -159 -46 -224 -85 -74 -43 -189 -140 -226 -188
-16 -22 -33 -38 -37 -35 -5 2 -8 0 -8 -6 0 -5 -9 -20 -20 -33 -50 -58 -114
-152 -125 -186 -12 -33 -11 -38 9 -55 85 -76 124 -88 172 -55 19 13 34 27 34
32 0 17 141 138 167 144 92 20 140 -9 136 -80 -3 -55 -11 -117 -17 -127 -3 -4
-7 -18 -10 -32 -3 -13 -17 -62 -31 -109 -15 -47 -31 -104 -37 -128 -5 -23 -14
-40 -19 -37 -5 4 -6 -1 -3 -9 3 -8 2 -21 -2 -28 -5 -7 -10 -19 -11 -25 -5 -21
-10 -37 -16 -53 -6 -14 -86 -274 -91 -295 -2 -5 -11 -37 -22 -70 -10 -33 -19
-64 -19 -70 0 -5 -4 -16 -8 -22 -5 -7 -6 -13 -3 -13 3 0 -1 -21 -9 -47 -43
-155 -51 -372 -16 -491 23 -76 118 -192 158 -192 7 0 13 -4 13 -8 0 -13 78
-34 135 -38 28 -1 73 2 100 8 28 6 56 11 63 11 6 0 12 4 12 9 0 5 4 7 9 3 5
-3 13 0 16 6 4 5 13 8 20 5 8 -3 15 0 17 5 2 6 10 11 18 13 41 7 153 74 239
144 49 39 151 145 159 164 1 4 18 24 37 45 19 21 35 41 35 44 0 4 18 34 41 68
48 72 60 108 45 136 -20 36 -97 105 -119 106 -50 3 -63 -7 -117 -83 -28 -39
-115 -142 -144 -169 -46 -44 -136 -48 -171 -9 -10 11 -15 20 -10 20 4 0 3 6
-3 13 -11 13 -6 148 6 157 7 5 11 25 15 72 1 14 6 23 11 20 5 -3 7 2 3 11 -3
10 -3 17 2 17 4 0 8 6 8 13 0 6 16 64 36 127 19 63 41 136 48 163 7 26 17 47
22 47 4 0 6 4 3 9 -3 5 4 35 15 67 11 33 22 64 23 69 26 101 68 239 79 253 6
8 6 12 -2 12 -7 0 -9 5 -4 13 4 6 8 15 9 20 1 4 2 8 4 10 8 10 35 139 50 237
18 123 5 310 -22 310 -4 0 -8 7 -8 15 0 31 -102 122 -161 143 -71 26 -175 33
-254 17z"/>
</g>
</svg>
